<svg id="Layer_1" data-name="Layer 1" xmlns="http://www.w3.org/2000/svg" viewBox="0 0 861 267.73"><defs><style>.cls-1{fill:#fff;}</style></defs><title>Artboard 1</title><polygon points="848 38.99 782.42 90.44 812.69 156.02 842.96 140.88 842.96 241.77 14.83 241.77 14.83 40 848 38.99 848 38.99"/><path class="cls-1" d="M187.9,129.81a74.37,74.37,0,0,1-1.59,15,79.84,79.84,0,0,1-16.11,33.87,84,84,0,0,1-28.94,23,81,81,0,0,1-35.76,8.21q-16.32,0-28.69-6.16A46.24,46.24,0,0,1,57.47,186.3C52.9,178.81,50.59,170,50.59,160a77,77,0,0,1,1.65-15.19c.41-2,.92-3.9,1.48-5.8a176.39,176.39,0,0,0,5,22.63c1.63,5.6,3.43,10.76,5.29,15.44q4.93-5.12,10.1-10.31,4.75-4.76,9.45-9.34A21.3,21.3,0,0,0,86.46,169a20.44,20.44,0,0,0,4.26,4.83c4.82,4.31,11.9,6.46,21.19,6.46a40.92,40.92,0,0,0,18.27-4.31,43.91,43.91,0,0,0,15.08-12.31,45.17,45.17,0,0,0,8.67-18.78A51.89,51.89,0,0,0,155,134.63c0-7.95-2.41-14.16-7.23-18.57s-11.81-6.62-20.84-6.62a40.65,40.65,0,0,0-18.57,4.36,43.64,43.64,0,0,0-14.52,11.7l9.44,2.51-1.18,1.18L84.3,147.05,65.63,165.78l-9.34-34.49L52.13,115.9l-.41-1.59,11.8,3.13a65.41,65.41,0,0,1,4.67-6.57,83,83,0,0,1,29-23.09,81.92,81.92,0,0,1,36-8.21c10.83,0,20.42,2.06,28.69,6.16a45.35,45.35,0,0,1,19.24,17.55C185.64,110.82,187.9,119.7,187.9,129.81Z"/><path class="cls-1" d="M211.45,203.77q-12.16-11.27-12.16-30A62.9,62.9,0,0,1,200.9,160l15.37-72.58h31.65l-15.55,72.94a58.51,58.51,0,0,0-1.26,10q0,7.88,4.83,11.62t16.27,3.76q12.87,0,20.29-6.26t10.1-19.13l15.56-72.94H329.8L314.43,160Q302.63,215,246,215,223.6,215,211.45,203.77Z"/><path class="cls-1" d="M368.24,114H333l5.72-26.64H441L435.28,114h-35.4l-20.74,98.32H347.5Z"/><path class="cls-1" d="M419.61,145.67h63.65l-5.36,25H414.25Z"/><path class="cls-1" d="M518.37,87.39h88.68L601.33,114h-57l-4.82,23.42h41.65l-5.36,24.85H534.11l-10.55,50H491.91Z"/><path class="cls-1" d="M616,87.39h31.65l-26.46,125H589.52Z"/><path class="cls-1" d="M687,114H651.74l5.72-26.64H759.72L754,114H718.6l-20.73,98.32H666.22Z"/></svg>